<?xml version="1.0" standalone="no"?>
<!DOCTYPE svg PUBLIC "-//W3C//DTD SVG 1.1//EN" "http://www.w3.org/Graphics/SVG/1.1/DTD/svg11.dtd">
<svg xmlns="http://www.w3.org/2000/svg" xmlns:xlink="http://www.w3.org/1999/xlink" version="1.1" id="body_1" width="1000" height="1000">

<defs>
    <clipPath  id="1">

    <path id=""  clip-rule="evenodd" transform="matrix(1 0 0 1 0 0)"  d="M0 750L0 0L0 0L750 0L750 0L750 750L750 750L0 750z" />    </clipPath>
</defs>

<g transform="matrix(1.3333 0 0 1.3333 0 0)">
	<g clip-path="url(#1)" >
    <path id=""  transform="matrix(1 0 0 -1 0 750)"  d="M347.99997 251.79993C 349.99997 243.59993 354.19998 227.49992 355.49997 222.99992L355.49997 222.99992L355.49997 222.99992L355.49997 222.99992L356.8 218.49992L356.8 218.49992L358.39996 223.99992L358.39996 223.99992L358.39996 223.99992C 359.19998 226.99992 361.49997 235.39992 363.3 242.49992L363.3 242.49992L363.3 242.49992L363.3 242.49992L366.59998 255.49992L366.59998 255.49992L373.39996 255.49992L373.39996 255.49992L380.3 255.49992L380.3 255.49992L384.8 237.19992L384.8 237.19992L384.8 237.19992C 387.3 227.19992 389.69998 219.29993 390.09998 219.69992L390.09998 219.69992L390.09998 219.69992C 390.49997 220.19992 392.69998 227.69992 394.99997 236.49992L394.99997 236.49992L394.99997 236.49992C 397.39996 245.29993 399.49997 253.29993 399.69998 254.29993L399.69998 254.29993L399.69998 254.29993C 400.09998 255.69992 401.39996 255.99992 406.99997 255.99992L406.99997 255.99992L406.99997 255.99992L406.99997 255.99992L413.8 255.99992L413.8 255.99992L411.8 249.79993L411.8 249.79993L411.8 249.79993C 410.69998 246.29993 409.39996 242.19992 408.99997 240.49992L408.99997 240.49992L408.99997 240.49992C 408.49997 238.89992 405.8 229.69992 402.89996 220.29993L402.89996 220.29993L402.89996 220.29993L402.89996 220.29993L397.69998 202.99992L397.69998 202.99992L390.09998 202.99992L390.09998 202.99992L382.49997 202.99992L382.49997 202.99992L379.09998 217.29993L379.09998 217.29993L379.09998 217.29993C 377.19998 225.09993 375.09998 232.99992 374.49997 234.89992L374.49997 234.89992L374.49997 234.89992C 373.39996 238.19992 373.39996 238.09993 370.59998 228.39993L370.59998 228.39993L370.59998 228.39993C 368.99997 222.89993 366.8 215.09993 365.49997 210.99992L365.49997 210.99992L365.49997 210.99992L365.49997 210.99992L363.3 203.49992L363.3 203.49992L355.99997 203.49992L355.99997 203.49992L348.69998 203.49992L348.69998 203.49992L342.8 223.99992L342.8 223.99992L342.8 223.99992C 339.49997 235.29993 336.09998 247.09993 335.09998 250.29993L335.09998 250.29993L335.09998 250.29993L335.09998 250.29993L333.3 255.99992L333.3 255.99992L340.09998 255.99992L340.09998 255.99992L346.9 255.99992L346.9 255.99992L347.99997 251.79993zM502.99997 250.49992L502.99997 250.49992L502.99997 250.49992L502.99997 243.99992L502.99997 243.99992L498.99997 243.99992L498.99997 243.99992L498.99997 243.99992C 496.79996 243.99992 493.39996 243.29993 491.39996 242.49992L491.39996 242.49992L491.39996 242.49992C 485.89996 240.19992 484.99997 236.69992 484.99997 218.49992L484.99997 218.49992L484.99997 218.49992L484.99997 218.49992L484.99997 202.99992L484.99997 202.99992L478.49997 202.99992L478.49997 202.99992L471.99997 202.99992L471.99997 202.99992L471.99997 229.49992L471.99997 229.49992L471.99997 255.99992L471.99997 255.99992L477.99997 255.99992L477.99997 255.99992L477.99997 255.99992C 483.59998 255.99992 483.99997 255.79993 483.99997 253.79993L483.99997 253.79993L483.99997 253.79993C 483.99997 249.39992 485.39996 248.89992 488.39996 251.99992L488.39996 251.99992L488.39996 251.99992C 491.19998 254.99992 495.39996 256.69992 500.29996 256.89993L500.29996 256.89993L500.29996 256.89993C 502.99997 256.9999 502.99997 256.89993 502.99997 250.49992zM589.99994 256.39993C 595.99994 254.59993 602.99994 248.59993 602.99994 245.29993L602.99994 245.29993L602.99994 245.29993C 602.99994 243.69992 601.89996 243.09993 597.6 242.09993L597.6 242.09993L597.6 242.09993C 592.3 240.89992 592.19995 240.89992 589.19995 243.99992L589.19995 243.99992L589.19995 243.99992C 587.39996 245.69992 585.1 246.99992 583.6 246.99992L583.6 246.99992L583.6 246.99992C 577.6 246.99992 573.19995 242.39992 576.3 239.29993L576.3 239.29993L576.3 239.29993C 577.1 238.49992 581.8 236.79993 586.89996 235.49992L586.89996 235.49992L586.89996 235.49992C 591.89996 234.19992 597.19995 232.49992 598.6 231.49992L598.6 231.49992L598.6 231.49992C 606.1 226.59993 607.1 215.19992 600.69995 208.09993L600.69995 208.09993L600.69995 208.09993C 592.39996 198.99992 570.3 200.29993 564.19995 210.09993L564.19995 210.09993L564.19995 210.09993C 560.49994 216.29993 560.8 217.29993 566.99994 218.19992L566.99994 218.19992L566.99994 218.19992C 572.19995 218.99992 572.6 218.89993 574.3 216.49992L574.3 216.49992L574.3 216.49992C 576.8 213.09993 582.69995 211.59993 587.6 213.19992L587.6 213.19992L587.6 213.19992C 590.89996 214.29993 591.49994 214.99992 591.8 217.69992L591.8 217.69992L591.8 217.69992C 592.19995 221.59993 591.3 222.19992 580.49994 224.79993L580.49994 224.79993L580.49994 224.79993C 565.89996 228.29993 561.99994 231.79993 561.99994 241.39992L561.99994 241.39992L561.99994 241.39992C 561.99994 246.69992 562.3 247.29993 566.3 251.29993L566.3 251.29993L566.3 251.29993C 572.49994 257.5999 580.39996 259.29993 589.99994 256.39993zM538.39996 256.89993C 548.19995 254.49992 553.89996 246.39992 554.69995 233.79993L554.69995 233.79993L554.69995 233.79993L554.69995 233.79993L555.3 225.99992L555.3 225.99992L536.6 225.99992L536.6 225.99992L536.6 225.99992C 524.49994 225.99992 517.99994 225.59993 517.99994 224.99992L517.99994 224.99992L517.99994 224.99992C 517.99994 222.09993 521.3 216.79993 524.19995 214.99992L524.19995 214.99992L524.19995 214.99992C 529.8 211.59993 535.49994 212.49992 541.1 217.59993L541.1 217.59993L541.1 217.59993C 543.49994 219.89993 543.99994 219.99992 548.8 218.89993L548.8 218.89993L548.8 218.89993C 551.69995 218.29993 553.99994 217.49992 553.99994 217.19992L553.99994 217.19992L553.99994 217.19992C 553.99994 216.09993 550.39996 210.69992 547.99994 208.19992L547.99994 208.19992L547.99994 208.19992C 542.69995 202.59993 530.99994 200.39993 521.6 203.19992L521.6 203.19992L521.6 203.19992C 515.99994 204.89993 508.79996 212.19992 506.69998 218.49992L506.69998 218.49992L506.69998 218.49992C 503.49997 227.79993 505.09998 241.09993 510.19998 247.99992L510.19998 247.99992L510.19998 247.99992C 515.89996 255.79993 527.89996 259.5999 538.39996 256.89993zM445.69998 256.69992C 448.59998 255.89992 452.49997 254.19992 454.39996 252.89992L454.39996 252.89992L454.39996 252.89992C 460.49997 248.79993 460.99997 246.39992 460.99997 223.49992L460.99997 223.49992L460.99997 223.49992L460.99997 223.49992L460.99997 202.99992L460.99997 202.99992L455.59998 202.99992L455.59998 202.99992L455.59998 202.99992C 450.39996 202.99992 450.09998 203.09993 449.49997 205.99992L449.49997 205.99992L449.49997 205.99992C 448.89996 208.89993 447.49997 209.99992 446.8 208.09993L446.8 208.09993L446.8 208.09993C 446.69998 207.59993 444.69998 206.09993 442.59998 204.59993L442.59998 204.59993L442.59998 204.59993C 434.99997 199.49992 422.59998 201.99992 417.39996 209.69992L417.39996 209.69992L417.39996 209.69992C 413.89996 214.99992 413.49997 219.49992 416.19998 224.79993L416.19998 224.79993L416.19998 224.79993C 419.09998 230.79993 423.69998 233.39992 433.89996 234.89992L433.89996 234.89992L433.89996 234.89992C 448.49997 237.09993 447.99997 236.99992 447.99997 239.09993L447.99997 239.09993L447.99997 239.09993C 447.99997 240.19992 446.8 242.19992 445.39996 243.69992L445.39996 243.69992L445.39996 243.69992C 443.19998 245.89992 442.19998 246.19992 437.69998 245.69992L437.69998 245.69992L437.69998 245.69992C 433.8 245.39992 432.19998 244.69992 430.59998 242.69992L430.59998 242.69992L430.59998 242.69992L430.59998 242.69992L428.49997 240.09993L428.49997 240.09993L423.19998 241.59993L423.19998 241.59993L423.19998 241.59993C 420.39996 242.49992 417.99997 243.39992 417.99997 243.59993L417.99997 243.59993L417.99997 243.59993C 417.99997 243.89992 418.89996 245.89992 419.99997 247.99992L419.99997 247.99992L419.99997 247.99992C 422.3 252.49992 425.09998 254.59993 431.19998 256.4999L431.19998 256.4999L431.19998 256.4999C 436.8 258.29993 439.39996 258.29993 445.69998 256.69992zM234.09999 256.39993C 244.59999 253.29993 251.99998 242.39992 251.99998 230.09993L251.99998 230.09993L251.99998 230.09993C 251.89998 212.79993 241.39998 201.99992 224.4 201.99992L224.4 201.99992L224.4 201.99992C 209.59999 201.99992 199.29999 211.79993 198.19998 227.09993L198.19998 227.09993L198.19998 227.09993C 196.69998 248.29993 213.9 262.29993 234.09999 256.39993zM315.19998 263.29993L315.19998 263.29993L315.19998 263.29993L315.49997 256.4999L315.49997 256.4999L321.3 256.19992L321.3 256.19992L326.99997 255.89992L326.99997 255.89992L326.99997 250.49992L326.99997 250.49992L326.99997 244.99992L326.99997 244.99992L320.9 244.99992L320.9 244.99992L314.8 244.99992L314.8 244.99992L315.19998 230.89992L315.19998 230.89992L315.19998 230.89992C 315.59998 214.49992 316.19998 213.39993 323.8 214.39993L323.8 214.39993L323.8 214.39993L323.8 214.39993L327.99997 214.99992L327.99997 214.99992L327.99997 210.69992L327.99997 210.69992L327.99997 210.69992C 327.99997 204.59993 326.49997 202.99992 319.99997 202.39993L319.99997 202.39993L319.99997 202.39993C 315.49997 201.99992 313.69998 202.29993 310.09998 204.19992L310.09998 204.19992L310.09998 204.19992C 302.9 207.99992 301.99997 210.69992 301.99997 229.19992L301.99997 229.19992L301.99997 229.19992L301.99997 229.19992L301.99997 244.99992L301.99997 244.99992L297.99997 244.99992L297.99997 244.99992L293.99997 244.99992L293.99997 244.99992L293.99997 250.49992L293.99997 250.49992L293.99997 255.99992L293.99997 255.99992L297.99997 255.99992L297.99997 255.99992L301.99997 255.99992L301.99997 255.99992L301.99997 262.9999L301.99997 262.9999L301.99997 269.9999L301.99997 269.9999L308.49997 269.9999L308.49997 269.9999L314.9 269.9999L314.9 269.9999L315.19998 263.29993zM174.09999 275.9999C 176.09999 275.39993 179.29999 273.9999 181.09999 272.69992L181.09999 272.69992L181.09999 272.69992C 184.69998 270.29993 191.29999 261.39993 190.69998 259.69992L190.69998 259.69992L190.69998 259.69992C 190.4 258.69992 186.09999 256.9999 180.79999 255.59993L180.79999 255.59993L180.79999 255.59993C 178.7 255.09993 177.99998 255.29993 177.99998 256.4999L177.99998 256.4999L177.99998 256.4999C 177.99998 257.29993 176.7 259.39993 175.09999 261.19992L175.09999 261.19992L175.09999 261.19992C 172.7 263.89993 171.49998 264.39993 166.2 264.79993L166.2 264.79993L166.2 264.79993C 160.4 265.19992 159.9 265.0999 156.99998 262.19992L156.99998 262.19992L156.99998 262.19992C 150.4 255.49992 154.09999 250.09993 167.99998 246.29993L167.99998 246.29993L167.99998 246.29993C 173.2 244.89992 179.09999 242.99992 180.99998 241.99992L180.99998 241.99992L180.99998 241.99992C 193.79999 235.49992 195.69998 218.59993 184.9 208.29993L184.9 208.29993L184.9 208.29993C 180.19998 203.89993 174.29999 201.99992 164.79999 201.99992L164.79999 201.99992L164.79999 201.99992C 151.99998 201.99992 143.9 206.89993 139.49998 217.29993L139.49998 217.29993L139.49998 217.29993C 138.7 219.29993 137.99998 221.29993 137.99998 221.79993L137.99998 221.79993L137.99998 221.79993C 137.99998 222.49992 148.4 225.99992 150.49998 225.99992L150.49998 225.99992L150.49998 225.99992C 150.79999 225.99992 150.99998 225.09993 150.99998 223.99992L150.99998 223.99992L150.99998 223.99992C 150.99998 222.89993 152.49998 220.39993 154.29999 218.39993L154.29999 218.39993L154.29999 218.39993C 161.7 210.29993 177.99998 213.69992 177.99998 223.39993L177.99998 223.39993L177.99998 223.39993C 177.99998 227.69992 174.2 231.19992 167.4 232.89992L167.4 232.89992L167.4 232.89992C 151.4 237.09993 145.49998 240.19992 142.4 246.09993L142.4 246.09993L142.4 246.09993C 140.4 250.09993 140.29999 259.29993 142.29999 263.9999L142.29999 263.9999L142.29999 263.9999C 144.59999 269.39993 150.2 273.9999 156.9 276.0999L156.9 276.0999L156.9 276.0999C 160.7 277.19992 169.9 277.0999 174.09999 275.9999zM288.99997 272.4999L288.99997 272.4999L288.99997 272.4999L288.99997 266.9999L288.99997 266.9999L285.09998 266.9999L285.09998 266.9999L285.09998 266.9999C 280.09998 266.9999 277.09998 264.4999 276.8 259.9999L276.8 259.9999L276.8 259.9999L276.8 259.9999L276.49997 256.4999L276.49997 256.4999L282.8 256.19992L282.8 256.19992L288.99997 255.89992L288.99997 255.89992L288.99997 250.49992L288.99997 250.49992L288.99997 244.99992L288.99997 244.99992L282.99997 244.99992L282.99997 244.99992L276.99997 244.99992L276.99997 244.99992L276.99997 223.99992L276.99997 223.99992L276.99997 202.99992L276.99997 202.99992L269.99997 202.99992L269.99997 202.99992L262.99997 202.99992L262.99997 202.99992L262.99997 223.99992L262.99997 223.99992L262.99997 244.99992L262.99997 244.99992L258.99997 244.99992L258.99997 244.99992L254.99998 244.99992L254.99998 244.99992L254.99998 250.49992L254.99998 250.49992L254.99998 255.99992L254.99998 255.99992L258.9 255.99992L258.9 255.99992L262.69998 255.99992L262.69998 255.99992L263.19998 262.29993L263.19998 262.29993L263.19998 262.29993C 264.09998 273.5999 269.19998 277.89993 281.8 277.9999L281.8 277.9999L281.8 277.9999L281.8 277.9999L288.99997 277.9999L288.99997 277.9999L288.99997 272.4999zM441.8 505.5999L441.8 505.5999L441.8 505.5999L441.99997 462.7999L441.99997 462.7999L445.59998 469.9999L445.59998 469.9999L445.59998 469.9999C 454.3 487.19992 471.09998 496.9999 492.19998 496.9999L492.19998 496.9999L492.19998 496.9999L492.19998 496.9999L499.99997 496.9999L499.99997 496.9999L499.99997 479.9999L499.99997 479.9999L499.99997 462.9999L499.99997 462.9999L494.29996 462.9999L494.29996 462.9999L494.29996 462.9999C 479.09998 462.9999 467.59998 458.3999 457.59998 448.4999L457.59998 448.4999L457.59998 448.4999C 454.3 445.0999 450.19998 439.79993 448.69998 436.8999L448.69998 436.8999L448.69998 436.8999C 442.99997 425.5999 442.69998 422.19992 442.09998 364.9999L442.09998 364.9999L442.09998 364.9999L442.09998 364.9999L441.49997 312.4999L441.49997 312.4999L419.8 312.19992L419.8 312.19992L397.99997 311.9999L397.99997 311.9999L397.99997 404.9999L397.99997 404.9999L397.99997 497.9999L397.99997 497.9999L386.49997 497.9999L386.49997 497.9999L374.99997 497.9999L374.99997 497.9999L374.99997 511.2999L374.99997 511.2999L375.09998 524.4999L375.09998 524.4999L395.8 536.6999L395.8 536.6999L416.49997 548.9999L416.49997 548.9999L428.99997 548.6999L428.99997 548.6999L441.49997 548.4999L441.49997 548.4999L441.8 505.5999zM590.8 534.7999L590.8 534.7999L590.8 534.7999L590.49994 519.4999L590.49994 519.4999L583.6 518.7999L583.6 518.7999L583.6 518.7999C 579.69995 518.3999 574.69995 517.3999 572.39996 516.4999L572.39996 516.4999L572.39996 516.4999C 565.1 513.6999 559.99994 505.9999 559.99994 497.7999L559.99994 497.7999L559.99994 497.7999L559.99994 497.7999L559.99994 494.9999L559.99994 494.9999L574.99994 494.9999L574.99994 494.9999L589.99994 494.9999L589.99994 494.9999L589.99994 479.5999L589.99994 479.5999L589.99994 464.2999L589.99994 464.2999L585.39996 463.5999L585.39996 463.5999L585.39996 463.5999C 582.8 463.2999 576.1 462.9999 570.39996 462.9999L570.39996 462.9999L570.39996 462.9999L570.39996 462.9999L559.99994 462.9999L559.99994 462.9999L559.99994 387.4999L559.99994 387.4999L559.99994 311.9999L559.99994 311.9999L538.99994 311.9999L538.99994 311.9999L517.99994 311.9999L517.99994 311.9999L517.99994 387.4999L517.99994 387.4999L517.99994 462.9999L517.99994 462.9999L511.99997 462.9999L511.99997 462.9999L505.99997 462.9999L505.99997 462.9999L505.99997 478.9999L505.99997 478.9999L505.99997 494.9999L505.99997 494.9999L511.99997 494.9999L511.99997 494.9999L511.99997 494.9999C 517.8 494.9999 517.99994 495.0999 517.99994 497.4999L517.99994 497.4999L517.99994 497.4999C 517.99994 503.0999 521.3 515.8999 524.39996 522.4999L524.39996 522.4999L524.39996 522.4999C 529.89996 533.9999 537.1 540.8999 548.69995 545.7999L548.69995 545.7999L548.69995 545.7999C 555.89996 548.7999 562.39996 549.6999 577.8 549.8999L577.8 549.8999L577.8 549.8999L577.8 549.8999L591.1 549.9999L591.1 549.9999L590.8 534.7999zM304.19998 568.5999C 334.3 562.5999 355.09998 544.1999 362.59998 516.9999L362.59998 516.9999L362.59998 516.9999C 365.39996 506.8999 365.19998 486.19992 362.09998 474.4999L362.09998 474.4999L362.09998 474.4999C 353.09998 440.29993 330.3 411.4999 273.3 362.3999L273.3 362.3999L273.3 362.3999C 268.3 358.0999 264.09998 354.29993 264.09998 353.9999L264.09998 353.9999L264.09998 353.9999C 263.99997 353.69992 286.69998 353.5999 314.49997 353.79993L314.49997 353.79993L314.49997 353.79993L314.49997 353.79993L364.99997 353.9999L364.99997 353.9999L364.99997 332.9999L364.99997 332.9999L364.99997 311.9999L364.99997 311.9999L277.49997 311.9999L277.49997 311.9999L189.99998 311.9999L189.99998 311.9999L189.99998 328.89993L189.99998 328.89993L189.99998 345.79993L189.99998 345.79993L201.59999 355.5999L201.59999 355.5999L201.59999 355.5999C 220.59999 371.69992 223.09999 373.8999 230.99998 380.8999L230.99998 380.8999L230.99998 380.8999C 274.19998 419.29993 297.59998 445.29993 306.9 465.3999L306.9 465.3999L306.9 465.3999C 318.3 490.0999 313.09998 513.9999 294.19998 522.7999L294.19998 522.7999L294.19998 522.7999C 289.09998 525.1999 287.3 525.4999 277.49997 525.4999L277.49997 525.4999L277.49997 525.4999C 267.69998 525.4999 265.9 525.1999 260.99997 522.8999L260.99997 522.8999L260.99997 522.8999C 255.19998 520.0999 249.19998 514.7999 245.39998 508.9999L245.39998 508.9999L245.39998 508.9999C 242.49998 504.5999 238.99998 494.69992 238.99998 490.5999L238.99998 490.5999L238.99998 490.5999C 238.99998 488.8999 238.69998 486.4999 238.39998 485.2999L238.39998 485.2999L238.39998 485.2999L238.39998 485.2999L237.79999 482.9999L237.79999 482.9999L212.49998 482.9999L212.49998 482.9999L187.19998 482.9999L187.19998 482.9999L187.69998 489.7999L187.69998 489.7999L187.69998 489.7999C 189.59999 517.4999 199.49998 537.2999 218.49998 551.5999L218.49998 551.5999L218.49998 551.5999C 235.99998 564.7999 259.09998 571.3999 284.49997 570.4999L284.49997 570.4999L284.49997 570.4999C 291.09998 570.2999 299.99997 569.3999 304.19998 568.5999zM0 374.9999L0 374.9999L0 374.9999L0 -6.1035156E-05L0 -6.1035156E-05L374.99997 -6.1035156E-05L374.99997 -6.1035156E-05L749.99994 -6.1035156E-05L749.99994 -6.1035156E-05L749.99994 374.9999L749.99994 374.9999L749.99994 749.9999L749.99994 749.9999L374.99997 749.9999L374.99997 749.9999L0 749.9999L0 749.9999L0 374.9999z" stroke="none" fill="#000000" fill-rule="nonzero" />
    <path id=""  transform="matrix(1 0 0 -1 0 750)"  d="M217.49998 242.79993C 210.09999 236.99992 210.29999 221.99992 217.79999 216.49992L217.79999 216.49992L217.79999 216.49992C 221.49998 213.79993 229.99998 213.79993 233.09999 216.59993L233.09999 216.59993L233.09999 216.59993C 236.19998 219.39993 237.99998 224.19992 237.99998 229.99992L237.99998 229.99992L237.99998 229.99992C 237.99998 235.69992 236.99998 238.09993 233.19998 242.29993L233.19998 242.29993L233.19998 242.29993C 230.99998 244.59993 229.79999 244.99992 225.4 244.99992L225.4 244.99992L225.4 244.99992C 221.69998 244.99992 219.49998 244.39992 217.49998 242.79993z" stroke="none" fill="#000000" fill-rule="nonzero" />
    <path id=""  transform="matrix(1 0 0 -1 0 750)"  d="M439.09998 226.59993C 428.69998 224.79993 425.09998 220.09993 430.3 215.19992L430.3 215.19992L430.3 215.19992C 434.69998 211.09993 444.99997 213.19992 446.99997 218.59993L446.99997 218.59993L446.99997 218.59993C 448.19998 221.59993 448.3 227.99992 447.3 227.89993L447.3 227.89993L447.3 227.89993C 446.8 227.79993 443.19998 227.19992 439.09998 226.59993z" stroke="none" fill="#000000" fill-rule="nonzero" />
    <path id=""  transform="matrix(1 0 0 -1 0 750)"  d="M524.69995 245.39992C 523.1 244.59993 520.99994 241.99992 519.99994 239.69992L519.99994 239.69992L519.99994 239.69992L519.99994 239.69992L518.1 235.49992L518.1 235.49992L529.69995 235.19992L529.69995 235.19992L529.69995 235.19992C 536.1 235.09993 541.49994 235.19992 541.8 235.39992L541.8 235.39992L541.8 235.39992C 542.69995 236.39992 540.99994 240.89992 538.69995 243.59993L538.69995 243.59993L538.69995 243.59993C 535.8 246.89992 528.89996 247.79993 524.69995 245.39992z" stroke="none" fill="#000000" fill-rule="nonzero" />
	</g>
</g>
</svg>